<svg width="16" height="16" viewBox="0 0 16 16" fill="none" xmlns="http://www.w3.org/2000/svg">
<path d="M0.475006 7.99999C0.475006 11.275 2.57501 14.05 5.47501 15.075V0.924988C2.57501 1.94999 0.475006 4.72499 0.475006 7.99999Z" fill="#428BC1"/>
<path d="M15.475 7.99999C15.475 4.72499 13.4 1.94999 10.475 0.924988V15.075C13.4 14.05 15.475 11.275 15.475 7.99999Z" fill="#ED4C5C"/>
<path d="M5.47501 15.075C6.25001 15.35 7.10001 15.5 7.97501 15.5C8.85001 15.5 9.70001 15.35 10.475 15.075V0.925C9.70001 0.65 8.87501 0.5 7.97501 0.5C7.07501 0.5 6.25001 0.65 5.47501 0.925V15.075Z" fill="white"/>
</svg>
